<?xml version="1.0" encoding="utf-8"?>
<!-- Generator: Adobe Illustrator 24.3.0, SVG Export Plug-In . SVG Version: 6.00 Build 0)  -->
<svg version="1.1" id="Слой_1" xmlns="http://www.w3.org/2000/svg" xmlns:xlink="http://www.w3.org/1999/xlink" x="0px" y="0px"
	 viewBox="0 0 1771 2499.8" style="enable-background:new 0 0 1771 2499.8;" xml:space="preserve">
<style type="text/css">
	.st0{fill:#1374AA;}
</style>
<path class="st0" d="M1387.8,92.5h-146.9l152.8,165.9v78.9h-314.8v-92.4h152.8L1078.9,79V0h309L1387.8,92.5z M1016.4,92.5H869.3
	l153,165.9v78.9H707.4v-92.4h152.8L707.4,79V0h309V92.5z M648.6,96.3H490.1v144.8h158.5v96.3H377.3V0h271.3V96.3z M0,491.4
	l161.2,1807.7l723.2,200.7l725.2-201L1771,491.4H0z M1436.2,905l-54.5,611h-0.1l-37.7,421.2l-3.3,37.5l-453.4,125.7v0.5h-1.3
	l-454.2-126.4l-31.1-348.1H623l15.8,176.8l246.9,66.7h0.4v-0.2l247.3-66.7l25.8-287H885.5v-0.2H641.4l-4.3-49.8L627,1353.6
	l-5.3-59.5h263.7h0.1h293.4l20.2-227H886.3v0.1H350.9l-4.6-49.8L336.2,905l-5.3-59.5h555.4h555.2L1436.2,905z"/>
</svg>
