<?xml version="1.0" encoding="utf-8"?>
<!-- Generator: Adobe Illustrator 24.3.0, SVG Export Plug-In . SVG Version: 6.00 Build 0)  -->
<svg version="1.1" id="Слой_1" xmlns="http://www.w3.org/2000/svg" xmlns:xlink="http://www.w3.org/1999/xlink" x="0px" y="0px"
	 viewBox="0 0 1040.4 1040.4" style="enable-background:new 0 0 1040.4 1040.4;" xml:space="preserve">
<style type="text/css">
	.st0{fill:#CE4A3C;}
</style>
<path class="st0" d="M1020.8,473.9L566.5,19.6c-26.2-26.2-68.6-26.2-94.7,0l0,0L377.4,114l119.7,119.6c28.7-9.8,60.4-2.4,81.9,19.1
	c21.5,21.6,28.9,53.6,18.9,82.4l115.3,115.3c27.9-9.6,60.1-3.4,82.4,18.9c31.1,31.1,31.1,81.6,0,112.7l0,0
	c-31.1,31.1-81.6,31.2-112.8,0.1c-22.8-22.8-29.6-57-17.4-86.8L557.9,387.8v283c7.8,3.9,14.9,8.9,21.1,15.1
	c31.1,31.1,31.1,81.6,0,112.8l0,0c-31.2,31.2-81.6,31.2-112.7,0c-31.1-31.1-31.2-81.6,0-112.8c7.5-7.5,16.4-13.4,26.1-17.4V382.8
	c-9.8-4-18.7-9.9-26.1-17.4c-23.6-23.6-29.3-58.2-17.2-87.2l-117.9-118L19.6,471.7c-26.2,26.2-26.2,68.6,0,94.8l0,0l454.3,454.2
	c26.2,26.2,68.6,26.2,94.8,0l452.1-452.1C1046.9,542.5,1046.9,500,1020.8,473.9"/>
</svg>
