<?xml version="1.0" encoding="utf-8"?>
<!-- Generator: Adobe Illustrator 24.3.0, SVG Export Plug-In . SVG Version: 6.00 Build 0)  -->
<svg version="1.1"
	 id="svg2" inkscape:version="0.91 r13725" sodipodi:docname="ajax_logo.svg" xmlns:cc="http://creativecommons.org/ns#" xmlns:dc="http://purl.org/dc/elements/1.1/" xmlns:inkscape="http://www.inkscape.org/namespaces/inkscape" xmlns:rdf="http://www.w3.org/1999/02/22-rdf-syntax-ns#" xmlns:sodipodi="http://sodipodi.sourceforge.net/DTD/sodipodi-0.dtd" xmlns:svg="http://www.w3.org/2000/svg"
	 xmlns="http://www.w3.org/2000/svg" xmlns:xlink="http://www.w3.org/1999/xlink" x="0px" y="0px" viewBox="0 0 374.7 159.7"
	 style="enable-background:new 0 0 374.7 159.7;" xml:space="preserve">
<style type="text/css">
	.st0{fill-rule:evenodd;clip-rule:evenodd;fill:#489DCC;}
</style>
<path id="path3338" class="st0" d="M124.3,0C110.3,0,99,11.3,99,25.3V88h-0.8L85.7,77.5L76,87.6l32,32l32.6-32l-11.2-10.1
	l-10.6,10.6h-1.2V27c0-7.8,6.3-14,14-14h11.1c7.8,0,14,6.3,14,14v6.5h21.7v-8.1c0-14-11.3-25.3-25.3-25.3L124.3,0L124.3,0z
	 M167.7,40.2l-32.6,32l11.2,10.1l10.6-10.7h1.2v61.2c0,7.8-6.3,14-14,14H133c-7.8,0-14-6.3-14-14v-6.5H97.3v8.1
	c0,14,11.3,25.3,25.3,25.3h28.8c14,0,25.3-11.3,25.3-25.3V71.8h0.8l12.4,10.6l9.9-10.1L167.7,40.2z M282.8,74.9l31.6,40.1l-35,42.4
	h29l19.4-27.9l19.7,27.9h27.2l-34.4-42.8l32.3-39.8h-26.8L327.4,101L310,74.8L282.8,74.9L282.8,74.9z M36.6,75.2L0,157.2h23.9
	l7.1-17.4h36.8l7.1,17.4h23.9l-36.7-82C62.1,75.2,36.6,75.2,36.6,75.2z M214.2,75.2l-36.6,82h23.9l7.1-17.4h36.8l7.1,17.4h23.9
	l-36.7-82C239.7,75.2,214.2,75.2,214.2,75.2z M49.6,94.6l6.2,15.6l6.2,15.6H49.6H37.2l6.2-15.6L49.6,94.6z M227.2,94.6l6.2,15.6
	l6.2,15.6h-12.4h-12.4l6.2-15.6L227.2,94.6z"/>
</svg>
