<?xml version="1.0" encoding="utf-8"?>
<!-- Generator: Adobe Illustrator 24.3.0, SVG Export Plug-In . SVG Version: 6.00 Build 0)  -->
<svg version="1.1" id="Слой_1" xmlns="http://www.w3.org/2000/svg" xmlns:xlink="http://www.w3.org/1999/xlink" x="0px" y="0px"
	 viewBox="0 0 1771 2500" style="enable-background:new 0 0 1771 2500;" xml:space="preserve">
<style type="text/css">
	.st0{fill:#D65B30;}
</style>
<path class="st0" d="M164.8,0.1h112.7v111.3h103.1V0.1h112.7v337.1H380.5V224.3H277.4v112.9H164.8V0.1z M641.4,111.9h-99.2V0.1
	h311.1v111.8H754v225.3H641.4V111.9L641.4,111.9z M902.6,0.1h117.5l72.3,118.4l72.2-118.4h117.5v337.1h-112.2V170.1L1092.4,290h-1.9
	l-77.6-119.9v167.1H902.6V0.1L902.6,0.1z M1338.2,0.1h112.7v225.7h158.5v111.4h-271.2V0.1z M0,491.4l161.2,1807.7l723.2,200.8
	l725.2-201.1L1771,491.4H0z M1434.8,920.4l-10.1,112.4l-4.4,49.8H885.5h-0.8H571.9l20.3,227h293.4h454.9h59.7l-5.4,59.5l-52.1,583.7
	l-3.3,37.5L885.6,2116l0,0l-1,0.3l-454.2-126.1l-31.1-348.1h222.6l15.8,176.8l246.9,66.7l0.2-0.1l0,0l247.3-66.7l25.7-287.5h-273
	l0,0H389.4l-54.5-611l-5.3-59.5h555.9h554.6L1434.8,920.4z"/>
</svg>
