<?xml version="1.0" encoding="utf-8"?>
<!-- Generator: Adobe Illustrator 24.3.0, SVG Export Plug-In . SVG Version: 6.00 Build 0)  -->
<svg version="1.1" id="Слой_1" xmlns="http://www.w3.org/2000/svg" xmlns:xlink="http://www.w3.org/1999/xlink" x="0px" y="0px"
	 viewBox="0 0 2232.2 2232.2" style="enable-background:new 0 0 2232.2 2232.2;" xml:space="preserve">
<style type="text/css">
	.st0{fill:#4494EA;}
</style>
<path class="st0" d="M2138.9,0H1064c0,268,217.2,485.2,485.2,485.2h198v191.2c0.2,267.7,217.2,484.8,484.9,484.9V93.2
	C2232.2,41.8,2190.5,0,2138.9,0z M1607.1,535.6H532.2c0.2,267.7,217.2,484.8,484.9,484.9h198v191.8
	c0.3,267.7,217.5,484.6,485.2,484.6v-1068C1700.3,577.4,1658.6,535.6,1607.1,535.6L1607.1,535.6z M1074.9,1070.9H0
	c0,268,217.3,485.2,485.2,485.2h198.6v191.2c0.2,267.5,216.8,484.4,484.3,484.9V1164.1C1168.2,1112.6,1126.4,1070.9,1074.9,1070.9
	L1074.9,1070.9z"/>
</svg>
