<?xml version="1.0" encoding="utf-8"?>
<!-- Generator: Adobe Illustrator 24.3.0, SVG Export Plug-In . SVG Version: 6.00 Build 0)  -->
<svg version="1.1" id="Слой_1" xmlns="http://www.w3.org/2000/svg" xmlns:xlink="http://www.w3.org/1999/xlink" x="0px" y="0px"
	 viewBox="0 0 1596.7 1958.1" style="enable-background:new 0 0 1596.7 1958.1;" xml:space="preserve">
<style type="text/css">
	.st0{fill:#60A350;}
</style>
<g>
	<polygon class="st0" points="1596.7,595.7 1596.7,127 1127.9,127 1127.9,346.7 820.3,346.7 820.3,0 795.9,0 795.9,12.2 
		795.9,815.4 468.8,815.4 468.8,830.1 476.1,830.1 795.9,830.1 795.9,1723.6 437.4,1723.6 437.4,1606.4 234.4,1489.3 31.4,1606.4 
		31.4,1840.8 234.4,1958 437.4,1840.8 437.4,1738.3 442.4,1738.3 795.9,1738.3 795.9,1958.1 820.3,1958.1 820.3,1298.8 
		822.8,1298.8 1127.9,1298.8 1127.9,1533.2 1596.7,1298.8 1127.9,1064.5 1127.9,1284.2 820.3,1284.2 820.3,361.3 822.8,361.3 
		1127.9,361.3 1127.9,595.7 	"/>
	<circle class="st0" cx="234.4" cy="830.1" r="234.4"/>
</g>
</svg>
