<svg width="21" height="30" viewBox="0 0 21 30" fill="none" xmlns="http://www.w3.org/2000/svg">
<path d="M20.2148 20.3281C20.2148 22.099 19.7656 23.6745 18.8672 25.0547C17.9688 26.4219 16.6732 27.4896 14.9805 28.2578C13.2878 29.013 11.3021 29.3906 9.02344 29.3906C7.1224 29.3906 5.52734 29.2604 4.23828 29C2.94922 28.7266 1.60807 28.2578 0.214844 27.5938V20.7188C1.6862 21.474 3.21615 22.0664 4.80469 22.4961C6.39323 22.9128 7.85156 23.1211 9.17969 23.1211C10.3255 23.1211 11.1654 22.9258 11.6992 22.5352C12.2331 22.1315 12.5 21.6172 12.5 20.9922C12.5 20.6016 12.3893 20.263 12.168 19.9766C11.9596 19.6771 11.6146 19.3776 11.1328 19.0781C10.6641 18.7786 9.40104 18.1667 7.34375 17.2422C5.48177 16.3958 4.08203 15.5755 3.14453 14.7812C2.22005 13.987 1.52995 13.0755 1.07422 12.0469C0.63151 11.0182 0.410156 9.80078 0.410156 8.39453C0.410156 5.76432 1.36719 3.71354 3.28125 2.24219C5.19531 0.770833 7.82552 0.0351562 11.1719 0.0351562C14.1276 0.0351562 17.1419 0.71875 20.2148 2.08594L17.8516 8.04297C15.1823 6.81901 12.8776 6.20703 10.9375 6.20703C9.9349 6.20703 9.20573 6.38281 8.75 6.73438C8.29427 7.08594 8.06641 7.52214 8.06641 8.04297C8.06641 8.60286 8.35286 9.10417 8.92578 9.54688C9.51172 9.98958 11.0872 10.7969 13.6523 11.9688C16.1133 13.0755 17.819 14.2669 18.7695 15.543C19.7331 16.806 20.2148 18.401 20.2148 20.3281Z" fill="black"/>
</svg>
