<svg xmlns="http://www.w3.org/2000/svg" width="91" height="24" viewBox="0 0 91 24">
    <g fill="none" fill-rule="evenodd">
        <g fill="#FFF" fill-rule="nonzero">
            <g>
                <path d="M9.206 20.462V6.825h5.317V3.23H0v3.594h5.317v13.637h3.89zm11.044.32c2.733 0 4.973-1.33 6.13-3.471l-3.57-.813c-.64.764-1.477 1.133-2.535 1.133-1.502 0-2.708-.886-3.126-2.24h9.526c.098-.419.148-.862.148-1.33 0-1.895-.64-3.495-1.945-4.775-1.305-1.304-2.905-1.944-4.825-1.944-1.944 0-3.544.64-4.849 1.944-1.305 1.28-1.945 2.88-1.945 4.776 0 1.92.665 3.52 1.994 4.8 1.33 1.28 3.003 1.92 4.997 1.92zm2.806-8.124h-5.883c.419-1.304 1.576-2.166 2.88-2.166 1.379 0 2.536.862 3.003 2.166zm10.725 8.124c1.329 0 2.51-.394 3.544-1.207v.887h3.668v-12.8h-3.668v.861c-1.058-.788-2.24-1.181-3.544-1.181-1.724 0-3.176.64-4.333 1.92-1.157 1.28-1.723 2.88-1.723 4.8 0 1.895.566 3.495 1.723 4.8 1.157 1.28 2.61 1.92 4.333 1.92zm.64-3.644c-1.6 0-2.856-1.329-2.856-3.101 0-1.699 1.256-3.052 2.856-3.052.787 0 1.452.295 2.018.886.566.59.837 1.304.837 2.166 0 1.772-1.28 3.101-2.855 3.101zm12.127 3.324v-7.385c0-1.305.96-2.314 2.166-2.314s2.141 1.01 2.141 2.314v7.385h3.693v-7.385c0-1.305.96-2.314 2.166-2.314s2.141 1.01 2.141 2.314v7.385h3.693v-8.37c0-1.354-.468-2.461-1.428-3.372-.96-.91-2.117-1.378-3.52-1.378-1.723 0-3.003.664-3.84 1.969-.91-1.305-2.215-1.97-3.89-1.97-1.353 0-2.46.493-3.322 1.477V7.662h-3.693v12.8h3.693zM66.256 6.75c.665 0 1.207-.222 1.625-.64.443-.419.665-.96.665-1.625 0-.664-.222-1.206-.665-1.624-.418-.419-.96-.64-1.625-.64-.664 0-1.206.221-1.649.64-.418.418-.64.96-.64 1.624 0 .665.222 1.206.64 1.625.443.418.985.64 1.65.64zm1.847 13.71v-12.8H64.41v12.8h3.693zm6.564 0v-9.673h2.781V7.662h-2.781v-.936c0-.763.59-1.304 1.378-1.304h1.403V2h-1.723c-1.354 0-2.486.394-3.397 1.206-.91.812-1.354 1.822-1.354 3.028v1.428h-1.846v3.126h1.846v9.674h3.693zM79.287 26c3.15 0 4.996-1.255 6.178-4.21l5.44-14.128h-3.816l-2.88 7.901-2.781-7.901h-3.816l4.85 12.701-.074.197c-.468 1.28-1.477 1.92-3.077 1.92h-.468V26h.443z" transform="translate(-100 -39) translate(100 37)"/>
            </g>
        </g>
    </g>
</svg>
